ISO-10303-21;
HEADER;
FILE_DESCRIPTION ((''), '2;1');
FILE_NAME ('', '2026-09-17T09:15:31', (''), (''), 'xbim Toolkit v6.1.605.0', 'Xbim.IO.MemoryModel v6.1.605.0', '');
FILE_SCHEMA (('IFC4'));
ENDSEC;
DATA;
#1=IFCUNITASSIGNMENT((#2));
#2=IFCSIUNIT(*,.LENGTHUNIT.,$,.METRE.);
#3=IFCGEOMETRICREPRESENTATIONCONTEXT($,'Model',3,1.E-05,#7,$);
#4=IFCCARTESIANPOINT((0.,0.,0.));
#5=IFCDIRECTION((0.,0.,1.));
#6=IFCDIRECTION((1.,0.,0.));
#7=IFCAXIS2PLACEMENT3D(#4,#5,#6);
#8=IFCPROJECT('2q0FTN4k9AO9EUXsLVWvSA',#9,'assessment-mm.3dm',$,$,$,$,(#3),#1);
#9=IFCOWNERHISTORY(#12,#13,$,.ADDED.,1789636531,#12,#13,0);
#10=IFCPERSON($,'User','Rhino',$,$,$,$,$);
#11=IFCORGANIZATION($,'OptiDesign',$,$,$);
#12=IFCPERSONANDORGANIZATION(#10,#11,$);
#13=IFCAPPLICATION(#11,'1.0','Rhino IFC Viewer','RhinoIfcViewer');
#14=IFCSITE('2bOkmwwnn9WgodvKrIHb3V',#9,'Default Site',$,$,#15,$,$,$,$,$,$,$,$);
#15=IFCLOCALPLACEMENT($,#7);
#16=IFCRELAGGREGATES('2JicyZ9Bb449M3JApKZQ1E',#9,$,$,#8,(#14));
#17=IFCBUILDING('2NdvIiVvXFuurRH3FgGw3s',#9,'Default Building',$,$,#18,$,$,$,$,$,$);
#18=IFCLOCALPLACEMENT(#15,#7);
#19=IFCRELAGGREGATES('3pnDdqfYT3rxRLI$U2BYzo',#9,$,$,#14,(#17));
#20=IFCBUILDINGSTOREY('2MnT3bZL50AhKlUmkjvGgm',#9,'Default Storey',$,$,#21,$,$,$,$);
#21=IFCLOCALPLACEMENT(#18,#7);
#22=IFCRELAGGREGATES('0_r9gGlADDpQfSmCQt6f0A',#9,$,$,#17,(#20));
#23=IFCRELCONTAINEDINSPATIALSTRUCTURE('0GOhvKxbH1Y9YTlAxchFcl',#9,$,$,(#24,#30,#36,#42),#20);
#24=IFCBUILDINGELEMENTPROXY('1A$onGIy13kAy09Gn_a2z1',#9,'Offset_Mesh',$,$,#25,#29,$,.NOTDEFINED.);
#25=IFCLOCALPLACEMENT(#21,#7);
#26=IFCCARTESIANPOINTLIST3D(((5.,0.,0.5),(6.,0.,0.5),(6.,1.,0.5),(5.,1.,0.5)),$);
#27=IFCTRIANGULATEDFACESET(#26,$,.F.,((1,2,3),(1,3,4)),$);
#28=IFCSHAPEREPRESENTATION(#3,'Body','Tessellation',(#27));
#29=IFCPRODUCTDEFINITIONSHAPE($,$,(#28));
#30=IFCBUILDINGELEMENTPROXY('2D3gunEkvA8e4McFcXbzXU',#9,'Open_Surface',$,$,#31,#35,$,.NOTDEFINED.);
#31=IFCLOCALPLACEMENT(#21,#7);
#32=IFCCARTESIANPOINTLIST3D(((0.,3.,1.),(0.,4.,1.),(1.,3.,1.),(1.,4.,1.)),$);
#33=IFCTRIANGULATEDFACESET(#32,$,.F.,((4,2,1),(4,1,3)),$);
#34=IFCSHAPEREPRESENTATION(#3,'Body','Tessellation',(#33));
#35=IFCPRODUCTDEFINITIONSHAPE($,$,(#34));
#36=IFCBUILDINGELEMENTPROXY('2kcoTtSJ560OvMpNLTf535',#9,'Extrusion_2m',$,$,#37,#41,$,.NOTDEFINED.);
#37=IFCLOCALPLACEMENT(#21,#7);
#38=IFCCARTESIANPOINTLIST3D(((2.,0.,0.),(2.,0.,2.),(3.,0.,0.),(3.,0.,2.),(2.5,0.,0.),(3.,0.,1.),(2.5,0.,2.),(2.,0.,1.),(3.,0.,0.),(3.,0.,2.),(3.,1.,0.),(3.,1.,2.),(3.,0.,1.),(3.,0.5,0.),(3.,1.,1.),(3.,0.5,2.),(3.,1.,0.),(3.,1.,2.),(2.,1.,0.),(2.,1.,2.),(3.,1.,1.),(2.5,1.,0.),(2.,1.,1.),(2.5,1.,2.),(2.,1.,0.),(2.,1.,2.),(2.,0.,0.),(2.,0.,2.),(2.,0.,1.),(2.,1.,1.),(2.,0.5,0.),(2.,0.5,2.),(2.,0.,0.),(2.,1.,0.),(3.,0.,0.),(3.,1.,0.),(2.5,0.,0.),(3.,0.5,0.),(2.5,1.,0.),(2.,0.5,0.),(2.,0.,2.),(2.,1.,2.),(3.,0.,2.),(3.,1.,2.),(2.5,0.,2.),(3.,0.5,2.),(2.5,1.,2.),(2.,0.5,2.)),$);
#39=IFCTRIANGULATEDFACESET(#38,$,.T.,((8,1,5),(8,7,2),(6,8,5),(8,6,7),(6,4,7),(3,6,5),(13,9,14),(13,16,10),(15,13,14),(13,15,16),(15,12,16),(11,15,14),(21,17,22),(21,24,18),(23,21,22),(21,23,24),(23,20,24),(19,23,22),(30,25,31),(30,32,26),(29,30,31),(30,29,32),(29,28,32),(27,29,31),(40,37,33),(40,34,39),(38,37,40),(40,39,38),(38,39,36),(35,37,38),(48,41,45),(48,47,42),(46,48,45),(48,46,47),(46,44,47),(43,46,45)),$);
#40=IFCSHAPEREPRESENTATION(#3,'Body','Tessellation',(#39));
#41=IFCPRODUCTDEFINITIONSHAPE($,$,(#40));
#42=IFCBUILDINGELEMENTPROXY('3ikHc4Q8TApATWTaSLJ0Lr',#9,'Box_1m',$,$,#43,#47,$,.NOTDEFINED.);
#43=IFCLOCALPLACEMENT(#21,#7);
#44=IFCCARTESIANPOINTLIST3D(((0.,0.,0.),(0.,0.,1.),(1.,0.,0.),(1.,0.,1.),(0.5,0.,0.),(0.5,0.,1.),(0.,0.,0.5),(1.,0.,0.5),(1.,0.,0.),(1.,0.,1.),(1.,1.,0.),(1.,1.,1.),(1.,0.5,0.),(1.,0.5,1.),(1.,0.,0.5),(1.,1.,0.5),(1.,1.,0.),(1.,1.,1.),(0.,1.,0.),(0.,1.,1.),(0.5,1.,0.),(0.5,1.,1.),(1.,1.,0.5),(0.,1.,0.5),(0.,1.,0.),(0.,1.,1.),(0.,0.,0.),(0.,0.,1.),(0.,0.5,0.),(0.,0.5,1.),(0.,0.,0.5),(0.,1.,0.5),(0.,0.,0.),(1.,0.,0.),(0.,1.,0.),(1.,1.,0.),(0.5,0.,0.),(1.,0.5,0.),(0.5,1.,0.),(0.,0.5,0.),(0.,0.,1.),(0.,1.,1.),(1.,0.,1.),(1.,1.,1.),(0.5,0.,1.),(1.,0.5,1.),(0.5,1.,1.),(0.,0.5,1.)),$);
#45=IFCTRIANGULATEDFACESET(#44,$,.T.,((7,1,5),(7,6,2),(8,7,5),(7,8,6),(8,4,6),(3,8,5),(15,9,13),(15,14,10),(16,15,13),(15,16,14),(16,12,14),(11,16,13),(23,17,21),(23,22,18),(24,23,21),(23,24,22),(24,20,22),(19,24,21),(32,25,29),(32,30,26),(31,32,29),(32,31,30),(31,28,30),(27,31,29),(37,33,40),(37,38,34),(39,37,40),(37,39,38),(39,36,38),(35,39,40),(48,41,45),(48,47,42),(46,48,45),(48,46,47),(46,44,47),(43,46,45)),$);
#46=IFCSHAPEREPRESENTATION(#3,'Body','Tessellation',(#45));
#47=IFCPRODUCTDEFINITIONSHAPE($,$,(#46));
ENDSEC;
END-ISO-10303-21;
